<svg width="600" height="600" viewBox="0 0 600 600" xmlns="http://www.w3.org/2000/svg" style="background-color:#1a1a1d;"><defs><filter id="glow"><feGaussianBlur stdDeviation="2.5" result="coloredBlur"/><feMerge><feMergeNode in="coloredBlur"/><feMergeNode in="SourceGraphic"/></feMerge></filter></defs><g opacity="0.7"><rect x="155" y="230" width="280" height="95" fill="hsl(195, 80%, 55%)" transform="rotate(-15 295 277.5)" /><rect x="420" y="50" width="150" height="220" fill="hsl(280, 75%, 60%)" transform="rotate(25 495 160)" /><rect x="50" y="450" width="200" height="130" fill="hsl(340, 85%, 65%)" transform="rotate(5 150 515)" /><rect x="350" y="380" width="240" height="70" fill="hsl(50, 90%, 50%)" transform="rotate(-5 470 415)" /></g><g filter="url(#glow)"><circle cx="100" cy="120" r="45" fill="hsl(10, 88%, 62%)" fill-opacity="0.85" /><circle cx="510" cy="290" r="70" fill="hsl(140, 80%, 45%)" fill-opacity="0.9" /><circle cx="280" cy="480" r="55" fill="hsl(220, 95%, 70%)" fill-opacity="0.95" /><circle cx="250" cy="80" r="25" fill="hsl(310, 82%, 75%)" fill-opacity="0.8" /><circle cx="450" cy="550" r="30" fill="hsl(60, 90%, 65%)" fill-opacity="0.9" /><circle cx="80" y="350" r="60" fill="hsl(0, 85%, 55%)" fill-opacity="0.8" /><circle cx="390" cy="150" r="40" fill="hsl(255, 78%, 68%)" fill-opacity="0.9" /></g><g fill-opacity="0.9" fill="hsl(0, 0%, 95%)"><circle cx="50" cy="50" r="3" /><circle cx="550" cy="580" r="4" /><circle cx="300" cy="300" r="2" /><circle cx="120" cy="490" r="3" /><circle cx="480" cy="80" r="5" /><circle cx="200" cy="205" r="2" /><circle cx="400" cy="400" r="3" /></g></svg>